<mxfile host="app.diagrams.net" modified="2023-11-02T14:17:51.006Z" agent="Mozilla/5.0 (Windows NT 10.0; Win64; x64) AppleWebKit/537.36 (KHTML, like Gecko) Chrome/118.0.0.0 Safari/537.36" etag="DnTi_PQ05ra0Vquh8m9C" version="22.0.8" type="device">
  <diagram name="Page-1" id="nJjmmfdFCxTsMkxpDyHF">
    <mxGraphModel dx="1235" dy="1769" grid="1" gridSize="10" guides="1" tooltips="1" connect="1" arrows="1" fold="1" page="1" pageScale="1" pageWidth="850" pageHeight="1100" math="0" shadow="0">
      <root>
        <mxCell id="0" />
        <mxCell id="1" parent="0" />
        <mxCell id="2qBPqS4014IwxNqQlL08-5" value="Home Activity" style="rounded=0;whiteSpace=wrap;html=1;" vertex="1" parent="1">
          <mxGeometry x="160" y="-680" width="120" height="60" as="geometry" />
        </mxCell>
        <mxCell id="2qBPqS4014IwxNqQlL08-6" value="" style="endArrow=none;dashed=1;html=1;strokeWidth=2;rounded=0;" edge="1" parent="1" target="2qBPqS4014IwxNqQlL08-5" source="2qBPqS4014IwxNqQlL08-7">
          <mxGeometry width="50" height="50" relative="1" as="geometry">
            <mxPoint x="220" y="-320" as="sourcePoint" />
            <mxPoint x="530" y="-450" as="targetPoint" />
          </mxGeometry>
        </mxCell>
        <mxCell id="2qBPqS4014IwxNqQlL08-8" value="RecyclerView&#39;s item" style="rounded=0;whiteSpace=wrap;html=1;" vertex="1" parent="1">
          <mxGeometry x="360" y="-680" width="120" height="60" as="geometry" />
        </mxCell>
        <mxCell id="2qBPqS4014IwxNqQlL08-9" value="" style="endArrow=none;dashed=1;html=1;strokeWidth=2;rounded=0;" edge="1" parent="1" target="2qBPqS4014IwxNqQlL08-8" source="2qBPqS4014IwxNqQlL08-10">
          <mxGeometry width="50" height="50" relative="1" as="geometry">
            <mxPoint x="420" y="-320" as="sourcePoint" />
            <mxPoint x="730" y="-450" as="targetPoint" />
          </mxGeometry>
        </mxCell>
        <mxCell id="2qBPqS4014IwxNqQlL08-11" value="" style="endArrow=none;dashed=1;html=1;strokeWidth=2;rounded=0;" edge="1" parent="1" target="2qBPqS4014IwxNqQlL08-7">
          <mxGeometry width="50" height="50" relative="1" as="geometry">
            <mxPoint x="220" y="-360" as="sourcePoint" />
            <mxPoint x="220" y="-620" as="targetPoint" />
          </mxGeometry>
        </mxCell>
        <mxCell id="2qBPqS4014IwxNqQlL08-7" value="" style="rounded=0;whiteSpace=wrap;html=1;" vertex="1" parent="1">
          <mxGeometry x="210" y="-560" width="20" height="170" as="geometry" />
        </mxCell>
        <mxCell id="2qBPqS4014IwxNqQlL08-12" value="" style="endArrow=none;dashed=1;html=1;strokeWidth=2;rounded=0;" edge="1" parent="1" target="2qBPqS4014IwxNqQlL08-10">
          <mxGeometry width="50" height="50" relative="1" as="geometry">
            <mxPoint x="420" y="-360" as="sourcePoint" />
            <mxPoint x="420" y="-620" as="targetPoint" />
          </mxGeometry>
        </mxCell>
        <mxCell id="2qBPqS4014IwxNqQlL08-19" style="edgeStyle=orthogonalEdgeStyle;rounded=0;orthogonalLoop=1;jettySize=auto;html=1;exitX=1;exitY=0.25;exitDx=0;exitDy=0;entryX=0;entryY=0.25;entryDx=0;entryDy=0;" edge="1" parent="1" source="2qBPqS4014IwxNqQlL08-10" target="2qBPqS4014IwxNqQlL08-17">
          <mxGeometry relative="1" as="geometry" />
        </mxCell>
        <mxCell id="2qBPqS4014IwxNqQlL08-20" value="onItemClickListener()&lt;br&gt;(manually defined)" style="edgeLabel;html=1;align=center;verticalAlign=middle;resizable=0;points=[];" vertex="1" connectable="0" parent="2qBPqS4014IwxNqQlL08-19">
          <mxGeometry x="-0.0337" y="1" relative="1" as="geometry">
            <mxPoint as="offset" />
          </mxGeometry>
        </mxCell>
        <mxCell id="2qBPqS4014IwxNqQlL08-10" value="" style="rounded=0;whiteSpace=wrap;html=1;" vertex="1" parent="1">
          <mxGeometry x="410" y="-560" width="20" height="66" as="geometry" />
        </mxCell>
        <mxCell id="2qBPqS4014IwxNqQlL08-13" value="" style="endArrow=classic;html=1;rounded=0;entryX=0;entryY=0.25;entryDx=0;entryDy=0;" edge="1" parent="1" target="2qBPqS4014IwxNqQlL08-10">
          <mxGeometry width="50" height="50" relative="1" as="geometry">
            <mxPoint x="230" y="-543" as="sourcePoint" />
            <mxPoint x="570" y="-560" as="targetPoint" />
          </mxGeometry>
        </mxCell>
        <mxCell id="2qBPqS4014IwxNqQlL08-14" value="Click on" style="edgeLabel;html=1;align=center;verticalAlign=middle;resizable=0;points=[];" vertex="1" connectable="0" parent="2qBPqS4014IwxNqQlL08-13">
          <mxGeometry x="-0.0728" relative="1" as="geometry">
            <mxPoint as="offset" />
          </mxGeometry>
        </mxCell>
        <mxCell id="2qBPqS4014IwxNqQlL08-15" value="CryptoAdapter" style="rounded=0;whiteSpace=wrap;html=1;" vertex="1" parent="1">
          <mxGeometry x="560" y="-680" width="120" height="60" as="geometry" />
        </mxCell>
        <mxCell id="2qBPqS4014IwxNqQlL08-16" value="" style="endArrow=none;dashed=1;html=1;strokeWidth=2;rounded=0;" edge="1" parent="1" target="2qBPqS4014IwxNqQlL08-15" source="2qBPqS4014IwxNqQlL08-17">
          <mxGeometry width="50" height="50" relative="1" as="geometry">
            <mxPoint x="620" y="-320" as="sourcePoint" />
            <mxPoint x="930" y="-450" as="targetPoint" />
          </mxGeometry>
        </mxCell>
        <mxCell id="2qBPqS4014IwxNqQlL08-18" value="" style="endArrow=none;dashed=1;html=1;strokeWidth=2;rounded=0;" edge="1" parent="1" target="2qBPqS4014IwxNqQlL08-17">
          <mxGeometry width="50" height="50" relative="1" as="geometry">
            <mxPoint x="620" y="-360" as="sourcePoint" />
            <mxPoint x="620" y="-620" as="targetPoint" />
          </mxGeometry>
        </mxCell>
        <mxCell id="2qBPqS4014IwxNqQlL08-25" style="edgeStyle=orthogonalEdgeStyle;rounded=0;orthogonalLoop=1;jettySize=auto;html=1;exitX=1;exitY=0.25;exitDx=0;exitDy=0;entryX=-0.065;entryY=0.1;entryDx=0;entryDy=0;entryPerimeter=0;" edge="1" parent="1" source="2qBPqS4014IwxNqQlL08-17" target="2qBPqS4014IwxNqQlL08-24">
          <mxGeometry relative="1" as="geometry">
            <mxPoint x="800" y="-543" as="targetPoint" />
          </mxGeometry>
        </mxCell>
        <mxCell id="2qBPqS4014IwxNqQlL08-26" value="startActivity()" style="edgeLabel;html=1;align=center;verticalAlign=middle;resizable=0;points=[];" vertex="1" connectable="0" parent="2qBPqS4014IwxNqQlL08-25">
          <mxGeometry x="0.0044" relative="1" as="geometry">
            <mxPoint as="offset" />
          </mxGeometry>
        </mxCell>
        <mxCell id="2qBPqS4014IwxNqQlL08-17" value="" style="rounded=0;whiteSpace=wrap;html=1;" vertex="1" parent="1">
          <mxGeometry x="610" y="-560" width="20" height="66" as="geometry" />
        </mxCell>
        <mxCell id="2qBPqS4014IwxNqQlL08-21" value="TradingActivity" style="rounded=0;whiteSpace=wrap;html=1;" vertex="1" parent="1">
          <mxGeometry x="760" y="-680" width="120" height="60" as="geometry" />
        </mxCell>
        <mxCell id="2qBPqS4014IwxNqQlL08-22" value="" style="endArrow=none;dashed=1;html=1;strokeWidth=2;rounded=0;" edge="1" parent="1" source="2qBPqS4014IwxNqQlL08-24" target="2qBPqS4014IwxNqQlL08-21">
          <mxGeometry width="50" height="50" relative="1" as="geometry">
            <mxPoint x="820" y="-320" as="sourcePoint" />
            <mxPoint x="1130" y="-450" as="targetPoint" />
          </mxGeometry>
        </mxCell>
        <mxCell id="2qBPqS4014IwxNqQlL08-23" value="" style="endArrow=none;dashed=1;html=1;strokeWidth=2;rounded=0;" edge="1" parent="1" target="2qBPqS4014IwxNqQlL08-24">
          <mxGeometry width="50" height="50" relative="1" as="geometry">
            <mxPoint x="820" y="-360" as="sourcePoint" />
            <mxPoint x="820" y="-620" as="targetPoint" />
          </mxGeometry>
        </mxCell>
        <mxCell id="2qBPqS4014IwxNqQlL08-32" style="edgeStyle=orthogonalEdgeStyle;rounded=0;orthogonalLoop=1;jettySize=auto;html=1;entryX=-0.104;entryY=0.376;entryDx=0;entryDy=0;entryPerimeter=0;exitX=1.003;exitY=0.13;exitDx=0;exitDy=0;exitPerimeter=0;" edge="1" parent="1" source="2qBPqS4014IwxNqQlL08-24" target="2qBPqS4014IwxNqQlL08-30">
          <mxGeometry relative="1" as="geometry">
            <mxPoint x="840" y="-545" as="sourcePoint" />
            <mxPoint x="1000" y="-544" as="targetPoint" />
            <Array as="points">
              <mxPoint x="920" y="-542" />
              <mxPoint x="920" y="-544" />
              <mxPoint x="1008" y="-544" />
            </Array>
          </mxGeometry>
        </mxCell>
        <mxCell id="2qBPqS4014IwxNqQlL08-33" value="Enter crypto amount &lt;br&gt;and click on" style="edgeLabel;html=1;align=center;verticalAlign=middle;resizable=0;points=[];" vertex="1" connectable="0" parent="2qBPqS4014IwxNqQlL08-32">
          <mxGeometry x="-0.0796" y="2" relative="1" as="geometry">
            <mxPoint as="offset" />
          </mxGeometry>
        </mxCell>
        <mxCell id="2qBPqS4014IwxNqQlL08-24" value="" style="rounded=0;whiteSpace=wrap;html=1;" vertex="1" parent="1">
          <mxGeometry x="810" y="-560" width="20" height="140" as="geometry" />
        </mxCell>
        <mxCell id="2qBPqS4014IwxNqQlL08-27" value="(TradingActivity) &lt;br&gt;Pay Button" style="rounded=0;whiteSpace=wrap;html=1;" vertex="1" parent="1">
          <mxGeometry x="960" y="-680" width="120" height="60" as="geometry" />
        </mxCell>
        <mxCell id="2qBPqS4014IwxNqQlL08-28" value="" style="endArrow=none;dashed=1;html=1;strokeWidth=2;rounded=0;" edge="1" parent="1" source="2qBPqS4014IwxNqQlL08-30" target="2qBPqS4014IwxNqQlL08-27">
          <mxGeometry width="50" height="50" relative="1" as="geometry">
            <mxPoint x="1020" y="-320" as="sourcePoint" />
            <mxPoint x="1330" y="-450" as="targetPoint" />
          </mxGeometry>
        </mxCell>
        <mxCell id="2qBPqS4014IwxNqQlL08-29" value="" style="endArrow=none;dashed=1;html=1;strokeWidth=2;rounded=0;" edge="1" parent="1" target="2qBPqS4014IwxNqQlL08-30" source="2qBPqS4014IwxNqQlL08-35">
          <mxGeometry width="50" height="50" relative="1" as="geometry">
            <mxPoint x="1020" y="-320" as="sourcePoint" />
            <mxPoint x="1020" y="-620" as="targetPoint" />
          </mxGeometry>
        </mxCell>
        <mxCell id="2qBPqS4014IwxNqQlL08-40" style="edgeStyle=orthogonalEdgeStyle;rounded=0;orthogonalLoop=1;jettySize=auto;html=1;exitX=1;exitY=0.25;exitDx=0;exitDy=0;entryX=-0.034;entryY=0.058;entryDx=0;entryDy=0;entryPerimeter=0;" edge="1" parent="1" source="2qBPqS4014IwxNqQlL08-30" target="2qBPqS4014IwxNqQlL08-50">
          <mxGeometry relative="1" as="geometry">
            <mxPoint x="1200" y="-550" as="targetPoint" />
          </mxGeometry>
        </mxCell>
        <mxCell id="2qBPqS4014IwxNqQlL08-41" value="if successfully, &lt;br&gt;connect and update" style="edgeLabel;html=1;align=center;verticalAlign=middle;resizable=0;points=[];" vertex="1" connectable="0" parent="2qBPqS4014IwxNqQlL08-40">
          <mxGeometry x="-0.1177" relative="1" as="geometry">
            <mxPoint as="offset" />
          </mxGeometry>
        </mxCell>
        <mxCell id="2qBPqS4014IwxNqQlL08-30" value="" style="rounded=0;whiteSpace=wrap;html=1;" vertex="1" parent="1">
          <mxGeometry x="1010" y="-560" width="20" height="40" as="geometry" />
        </mxCell>
        <mxCell id="2qBPqS4014IwxNqQlL08-34" value="" style="endArrow=classic;html=1;rounded=0;exitX=1;exitY=1;exitDx=0;exitDy=0;entryX=1;entryY=0.25;entryDx=0;entryDy=0;" edge="1" parent="1" source="2qBPqS4014IwxNqQlL08-30" target="2qBPqS4014IwxNqQlL08-35">
          <mxGeometry width="50" height="50" relative="1" as="geometry">
            <mxPoint x="1060" y="-460" as="sourcePoint" />
            <mxPoint x="1080" y="-480" as="targetPoint" />
            <Array as="points">
              <mxPoint x="1070" y="-490" />
            </Array>
          </mxGeometry>
        </mxCell>
        <mxCell id="2qBPqS4014IwxNqQlL08-37" value="&lt;font style=&quot;font-size: 10px;&quot;&gt;enterred amount&amp;nbsp;&lt;br&gt;&amp;gt; balance (in USD)&lt;/font&gt;" style="edgeLabel;html=1;align=center;verticalAlign=middle;resizable=0;points=[];" vertex="1" connectable="0" parent="2qBPqS4014IwxNqQlL08-34">
          <mxGeometry x="-0.2526" y="-2" relative="1" as="geometry">
            <mxPoint x="31" y="2" as="offset" />
          </mxGeometry>
        </mxCell>
        <mxCell id="2qBPqS4014IwxNqQlL08-36" value="" style="endArrow=none;dashed=1;html=1;strokeWidth=2;rounded=0;" edge="1" parent="1" target="2qBPqS4014IwxNqQlL08-35">
          <mxGeometry width="50" height="50" relative="1" as="geometry">
            <mxPoint x="1020" y="-360" as="sourcePoint" />
            <mxPoint x="1020" y="-520" as="targetPoint" />
          </mxGeometry>
        </mxCell>
        <mxCell id="2qBPqS4014IwxNqQlL08-35" value="" style="rounded=0;whiteSpace=wrap;html=1;" vertex="1" parent="1">
          <mxGeometry x="1010" y="-470" width="20" height="40" as="geometry" />
        </mxCell>
        <mxCell id="2qBPqS4014IwxNqQlL08-38" style="edgeStyle=orthogonalEdgeStyle;rounded=0;orthogonalLoop=1;jettySize=auto;html=1;exitX=0;exitY=0.75;exitDx=0;exitDy=0;dashed=1;entryX=1.049;entryY=0.858;entryDx=0;entryDy=0;entryPerimeter=0;" edge="1" parent="1" source="2qBPqS4014IwxNqQlL08-35" target="2qBPqS4014IwxNqQlL08-24">
          <mxGeometry relative="1" as="geometry">
            <mxPoint x="840" y="-440" as="targetPoint" />
          </mxGeometry>
        </mxCell>
        <mxCell id="2qBPqS4014IwxNqQlL08-39" value="&quot;Insufficient&lt;br&gt;account balance&quot;" style="edgeLabel;html=1;align=center;verticalAlign=middle;resizable=0;points=[];" vertex="1" connectable="0" parent="2qBPqS4014IwxNqQlL08-38">
          <mxGeometry x="-0.0652" y="-1" relative="1" as="geometry">
            <mxPoint as="offset" />
          </mxGeometry>
        </mxCell>
        <mxCell id="2qBPqS4014IwxNqQlL08-42" value="&lt;font style=&quot;font-size: 10px;&quot;&gt;Firestore&#39; collections &quot;users&quot;, &quot;usersCryptoBalance&quot;,&lt;br&gt;&quot;transaction&quot;&lt;/font&gt;" style="rounded=0;whiteSpace=wrap;html=1;" vertex="1" parent="1">
          <mxGeometry x="1155" y="-680" width="120" height="60" as="geometry" />
        </mxCell>
        <mxCell id="2qBPqS4014IwxNqQlL08-43" value="" style="endArrow=none;dashed=1;html=1;strokeWidth=2;rounded=0;" edge="1" parent="1" target="2qBPqS4014IwxNqQlL08-42">
          <mxGeometry width="50" height="50" relative="1" as="geometry">
            <mxPoint x="1215" y="-360" as="sourcePoint" />
            <mxPoint x="1525" y="-450" as="targetPoint" />
          </mxGeometry>
        </mxCell>
        <mxCell id="2qBPqS4014IwxNqQlL08-49" value="&lt;font style=&quot;font-size: 18px;&quot;&gt;&lt;b&gt;Buying cryptocurrency&lt;/b&gt;&lt;/font&gt;" style="shape=umlFrame;whiteSpace=wrap;html=1;pointerEvents=0;width=290;height=30;" vertex="1" parent="1">
          <mxGeometry x="90" y="-730" width="1240" height="390" as="geometry" />
        </mxCell>
        <mxCell id="2qBPqS4014IwxNqQlL08-50" value="" style="rounded=0;whiteSpace=wrap;html=1;" vertex="1" parent="1">
          <mxGeometry x="1205" y="-560" width="20" height="170" as="geometry" />
        </mxCell>
        <mxCell id="2qBPqS4014IwxNqQlL08-51" style="edgeStyle=orthogonalEdgeStyle;rounded=0;orthogonalLoop=1;jettySize=auto;html=1;exitX=0;exitY=0.75;exitDx=0;exitDy=0;dashed=1;" edge="1" parent="1" target="2qBPqS4014IwxNqQlL08-7">
          <mxGeometry relative="1" as="geometry">
            <mxPoint x="1205" y="-400" as="sourcePoint" />
            <mxPoint x="1026" y="-400" as="targetPoint" />
            <Array as="points">
              <mxPoint x="480" y="-400" />
              <mxPoint x="480" y="-400" />
            </Array>
          </mxGeometry>
        </mxCell>
        <mxCell id="2qBPqS4014IwxNqQlL08-52" value="startActivity()" style="edgeLabel;html=1;align=center;verticalAlign=middle;resizable=0;points=[];" vertex="1" connectable="0" parent="2qBPqS4014IwxNqQlL08-51">
          <mxGeometry x="-0.0652" y="-1" relative="1" as="geometry">
            <mxPoint as="offset" />
          </mxGeometry>
        </mxCell>
      </root>
    </mxGraphModel>
  </diagram>
</mxfile>
